<svg xmlns="http://www.w3.org/2000/svg" viewBox="0 0 120 120">
  <defs>
    <linearGradient id="f-grad" x1="0" y1="0" x2="1" y2="1">
      <stop offset="0" stop-color="#ff4f8b"/>
      <stop offset="0.55" stop-color="#e040fb"/>
      <stop offset="1" stop-color="#7c4dff"/>
    </linearGradient>
    <filter id="f-glow" x="-30%" y="-30%" width="160%" height="160%">
      <feGaussianBlur stdDeviation="3" result="b"/>
      <feMerge><feMergeNode in="b"/><feMergeNode in="SourceGraphic"/></feMerge>
    </filter>
  </defs>
  <g fill="url(#f-grad)" stroke="url(#f-grad)" filter="url(#f-glow)">
    <circle cx="60" cy="60" r="44" fill="none" stroke-width="5"/>
    <g stroke="none"><rect x="4.5" y="58.5" width="3" height="3" rx="1.5"/><rect x="10.5" y="58.5" width="3" height="3" rx="1.5"/><rect x="16.5" y="58.5" width="3" height="3" rx="1.5"/><rect x="22.5" y="55.0" width="3" height="10" rx="1.5"/><rect x="28.5" y="51.0" width="3" height="18" rx="1.5"/><rect x="34.5" y="45.0" width="3" height="30" rx="1.5"/><rect x="40.5" y="38.0" width="3" height="44" rx="1.5"/><rect x="46.5" y="47.0" width="3" height="26" rx="1.5"/><rect x="52.5" y="42.0" width="3" height="36" rx="1.5"/><rect x="58.5" y="34.0" width="3" height="52" rx="1.5"/><rect x="64.5" y="28.0" width="3" height="64" rx="1.5"/><rect x="70.5" y="40.0" width="3" height="40" rx="1.5"/><rect x="76.5" y="33.0" width="3" height="54" rx="1.5"/><rect x="82.5" y="44.0" width="3" height="32" rx="1.5"/><rect x="88.5" y="38.0" width="3" height="44" rx="1.5"/><rect x="94.5" y="48.0" width="3" height="24" rx="1.5"/><rect x="100.5" y="58.5" width="3" height="3" rx="1.5"/><rect x="106.5" y="58.5" width="3" height="3" rx="1.5"/><rect x="112.5" y="58.5" width="3" height="3" rx="1.5"/></g>
  </g>
</svg>
